# xmcd
#
# Track frame offsets:
#	150
#	15574
#	35970
#	50030
#	66786
#	91333
#	110202
#	124317
#	140554
#	154604
#	170742
#
# Disc length: 2498 seconds
# Revision: 0
# Processed by: cddbd v1.5.2PL0 Copyright (c) Steve Scherf et al.
# Submitted via: dBpowerAMP V12.0
#
DISCID=a309c00b
DTITLE=Various Artist - Classic Country Together
DYEAR=2018
DGENRE=Country
TTITLE0=Brett Albrecht - Folsom Prison Blues
TTITLE1=Glen Albrecht - Sing Me Back Home
TTITLE2=Brett Albrecht - I Got Strips
TTITLE3=Glen Albrecht - The Fightin' Side Of Me
TTITLE4=Brett Albrecht - Sunday Morning Coming Down
TTITLE5=Glen Albrecht - Lonesome Fugitive
TTITLE6=Brett Albrecht - Big River
TTITLE7=Glen Albrecht - The Running Kind
TTITLE8=Brett Albrecht - Ring Of Fire
TTITLE9=Glen Albrecht - Ramblin Fever
TTITLE10=Glen and Brett Albrecht - I Walk The Line
EXTD=
EXTT0=
EXTT1=
EXTT2=
EXTT3=
EXTT4=
EXTT5=
EXTT6=
EXTT7=
EXTT8=
EXTT9=
EXTT10=
PLAYORDER=
